<?xml version="1.0" standalone="no"?>
<!DOCTYPE svg PUBLIC "-//W3C//DTD SVG 20010904//EN"
 "http://www.w3.org/TR/2001/REC-SVG-20010904/DTD/svg10.dtd">
<svg version="1.0" xmlns="http://www.w3.org/2000/svg"
 width="500.000000pt" height="204.000000pt" viewBox="0 0 500.000000 204.000000"
 preserveAspectRatio="xMidYMid meet">

<g transform="translate(0.000000,204.000000) scale(0.100000,-0.100000)"
fill="#000000" stroke="none">
<path d="M84 1160 c-44 -17 -54 -48 -54 -156 0 -96 2 -105 26 -133 l26 -31
229 0 229 0 0 -75 0 -75 -207 2 -208 3 -3 33 c-3 32 -4 32 -58 32 l-54 0 0
-50 c0 -28 7 -64 15 -80 l16 -30 288 0 289 0 18 27 c14 21 20 51 22 125 4 109
-12 163 -55 179 -13 5 -123 9 -244 9 l-220 0 3 66 3 66 180 0 c99 0 186 -1
193 -1 7 -1 12 -14 12 -31 l0 -30 60 0 60 0 0 37 c0 59 -20 101 -53 113 -36
12 -483 13 -513 0z"/>
<path d="M840 885 l0 -285 65 0 65 0 1 263 c0 144 2 272 3 285 3 21 -1 22 -66
22 l-68 0 0 -285z"/>
<path d="M1165 885 l0 -285 58 0 57 0 0 203 0 202 29 -30 c16 -16 39 -39 52
-50 13 -11 98 -82 189 -158 91 -76 170 -145 176 -153 7 -9 31 -14 68 -14 l56
0 0 285 0 285 -61 0 -61 0 4 -200 c3 -175 -1 -222 -14 -192 -1 4 -79 72 -173
150 -93 79 -196 166 -227 193 -51 44 -62 49 -105 49 l-48 0 0 -285z"/>
<path d="M2079 1159 c-44 -16 -49 -43 -49 -283 0 -211 1 -225 21 -250 l20 -26
319 0 320 0 17 27 c16 23 18 56 21 239 3 235 -4 275 -53 294 -34 13 -581 12
-616 -1z m541 -279 l0 -190 -227 2 -228 3 -3 188 -2 187 230 0 230 0 0 -190z"/>
<path d="M2870 1165 c0 -7 62 -119 155 -277 13 -24 36 -63 50 -88 14 -25 39
-67 55 -95 17 -27 36 -62 42 -78 11 -25 17 -27 70 -27 l58 0 23 43 c42 82 74
142 96 180 12 22 43 78 68 125 25 48 63 117 84 155 l38 67 -63 0 c-56 0 -66
-3 -79 -24 -15 -22 -127 -233 -185 -348 -14 -27 -28 -48 -31 -48 -4 0 -17 19
-29 43 -12 23 -33 60 -45 82 -53 93 -133 238 -146 266 -14 28 -17 29 -88 29
-40 0 -73 -2 -73 -5z"/>
<path d="M3770 1157 c-47 -24 -51 -45 -48 -288 3 -207 5 -229 22 -248 19 -21
27 -21 335 -21 174 0 322 4 329 8 24 16 32 79 32 272 0 227 -7 263 -52 279
-46 16 -585 15 -618 -2z m540 -277 l0 -190 -227 2 -228 3 -3 188 -2 187 230 0
230 0 0 -190z"/>
<path d="M21 311 c-12 -21 -15 -258 -5 -285 8 -20 30 -21 42 0 8 14 10 14 21
0 18 -22 43 -20 69 4 18 17 22 32 22 86 0 71 -9 98 -41 114 -16 9 -26 8 -44
-4 l-24 -16 -3 57 c-3 59 -19 78 -37 44z m83 -127 c25 -9 22 -110 -2 -123 -13
-7 -23 -6 -30 1 -16 16 -16 115 1 121 6 3 13 6 14 6 1 1 8 -2 17 -5z"/>
<path d="M640 315 c-12 -14 -11 -18 1 -26 20 -12 34 -6 34 16 0 24 -19 30 -35
10z"/>
<path d="M2092 322 c-9 -7 -12 -45 -10 -158 3 -141 4 -149 23 -149 19 0 20 7
20 154 0 152 -4 171 -33 153z"/>
<path d="M2573 314 c-8 -20 9 -36 30 -28 21 8 22 30 1 38 -22 8 -24 8 -31 -10z"/>
<path d="M2437 313 c-4 -3 -7 -21 -7 -39 0 -24 -5 -34 -20 -39 -11 -3 -20 -13
-20 -22 0 -8 9 -17 20 -20 18 -5 20 -14 20 -94 0 -81 2 -89 19 -89 25 0 31 19
31 105 0 64 2 73 20 78 28 7 25 35 -4 43 -16 4 -23 11 -19 20 13 36 -18 80
-40 57z"/>
<path d="M236 233 c-3 -4 -6 -48 -6 -99 0 -86 1 -93 25 -108 35 -23 72 -20
100 9 23 22 25 32 25 108 0 62 -4 86 -13 90 -28 10 -36 -10 -39 -93 -3 -83 -4
-85 -28 -85 -25 0 -25 2 -28 87 -2 61 -7 88 -16 91 -8 3 -17 3 -20 0z"/>
<path d="M480 227 c-30 -15 -49 -61 -34 -85 6 -9 27 -25 47 -35 39 -19 48 -43
21 -54 -8 -3 -26 0 -40 7 -19 11 -27 11 -37 1 -9 -10 -7 -16 13 -31 52 -40
120 -15 120 44 0 37 -10 49 -55 63 -37 12 -49 53 -15 53 12 0 30 -5 41 -10 15
-9 21 -7 26 5 12 34 -46 62 -87 42z"/>
<path d="M641 231 c-8 -5 -11 -39 -9 -112 3 -96 4 -104 23 -104 19 0 20 8 23
106 2 83 0 108 -11 112 -8 3 -19 2 -26 -2z"/>
<path d="M1008 228 c-35 -12 -52 -64 -44 -132 6 -57 31 -86 75 -86 35 1 76 33
68 54 -8 20 -33 21 -41 1 -7 -20 -42 -19 -50 1 -14 36 -7 43 47 46 50 3 52 4
55 33 2 20 -5 39 -20 57 -28 32 -54 40 -90 26z m60 -65 c3 -20 -1 -23 -27 -23
-23 0 -31 5 -31 18 0 25 10 33 35 30 12 -2 21 -12 23 -25z"/>
<path d="M1211 227 c-28 -14 -42 -52 -31 -83 5 -11 27 -28 49 -39 27 -12 41
-24 39 -34 -4 -19 -46 -27 -61 -12 -15 15 -37 14 -37 -2 0 -46 82 -62 118 -24
39 41 23 82 -41 106 -18 7 -27 18 -27 32 0 20 4 21 45 15 48 -8 56 1 28 26
-27 24 -55 29 -82 15z"/>
<path d="M1400 227 c-21 -11 -25 -20 -25 -57 0 -43 2 -46 43 -64 28 -13 42
-25 40 -35 -4 -19 -46 -27 -61 -12 -15 15 -37 14 -37 -2 0 -23 35 -47 67 -47
40 0 65 29 61 72 -3 28 -9 36 -46 52 -57 26 -54 52 6 49 29 -1 42 2 42 11 0
31 -54 51 -90 33z"/>
<path d="M1706 219 c-19 -15 -26 -30 -26 -54 0 -30 5 -36 45 -55 30 -15 45
-28 45 -41 0 -22 -30 -26 -60 -7 -16 10 -22 10 -32 0 -11 -11 -9 -17 11 -33
49 -40 121 -12 121 48 0 31 -4 36 -45 54 -32 14 -45 26 -45 41 0 18 4 20 45
14 37 -6 45 -4 45 8 0 14 -47 46 -68 46 -5 0 -21 -9 -36 -21z"/>
<path d="M1913 230 c-32 -13 -43 -41 -43 -114 0 -54 4 -69 22 -86 28 -26 68
-26 102 1 23 18 26 27 26 88 0 57 -3 71 -22 88 -29 26 -57 34 -85 23z m57
-109 c0 -56 -3 -70 -17 -75 -26 -10 -43 21 -43 79 0 58 4 65 37 65 22 0 23 -3
23 -69z"/>
<path d="M2312 227 c-6 -7 -12 -49 -14 -92 -3 -78 -4 -80 -28 -80 -24 0 -25 2
-30 85 -5 77 -7 85 -25 85 -18 0 -20 -7 -20 -86 0 -80 2 -88 25 -108 31 -26
71 -27 101 -2 21 17 24 29 27 103 3 65 1 87 -11 96 -11 10 -17 9 -25 -1z"/>
<path d="M2581 231 c-8 -5 -11 -39 -9 -112 3 -96 4 -104 23 -104 19 0 20 8 23
106 2 83 0 108 -11 112 -8 3 -19 2 -26 -2z"/>
<path d="M2734 230 c-37 -15 -54 -50 -54 -113 0 -50 4 -61 26 -82 31 -29 70
-32 102 -9 20 13 22 24 22 94 0 58 -4 83 -16 94 -8 9 -19 16 -24 16 -5 0 -14
2 -22 4 -7 3 -23 1 -34 -4z m54 -106 c2 -45 -1 -64 -13 -74 -27 -22 -45 5 -45
70 0 63 5 72 35 68 17 -3 20 -11 23 -64z"/>
<path d="M3152 229 c-29 -11 -47 -56 -33 -86 6 -12 28 -31 50 -43 28 -14 39
-25 35 -35 -7 -17 -49 -20 -59 -5 -11 17 -35 11 -35 -10 0 -39 83 -55 113 -22
35 38 19 87 -35 109 -55 22 -49 49 10 45 44 -2 50 4 30 30 -17 20 -48 27 -76
17z"/>
<path d="M752 123 c2 -88 6 -108 18 -108 12 0 16 18 20 79 4 59 9 82 22 89 31
20 47 -8 50 -91 2 -61 6 -77 18 -77 12 0 16 17 18 79 4 98 -10 136 -47 136
-15 0 -33 -6 -40 -12 -11 -10 -14 -10 -18 0 -3 6 -13 12 -24 12 -18 0 -20 -7
-17 -107z"/>
<path d="M2902 123 c2 -88 6 -108 18 -108 12 0 16 18 20 79 4 59 9 82 22 89
12 8 21 7 32 -2 12 -10 16 -33 16 -93 0 -70 2 -79 18 -76 14 3 17 16 20 82 4
98 -10 136 -47 136 -15 0 -33 -6 -40 -12 -11 -10 -14 -10 -18 0 -3 6 -13 12
-24 12 -18 0 -20 -7 -17 -107z"/>
</g>
</svg>
