<?xml version="1.0" encoding="UTF-8" standalone="no"?>
<!-- Created with Inkscape (http://www.inkscape.org/) -->
<svg xmlns:svg="http://www.w3.org/2000/svg" xmlns="http://www.w3.org/2000/svg" version="1.0" width="814.96063" height="285.59055" id="svg2">
  <defs id="defs4"/>
  <g transform="translate(-611.45051,-25.20175)" id="layer1">
    <g transform="translate(17.723118,17.717147)" id="g18190">
      <path d="M 395.8125,29.65625 L 393.875,30.21875 L 352.5,41.6875 L 351.375,42 L 351.375,43.1875 L 351.21875,171.90625 L 351.21875,173.46875 L 352.75,173.46875 L 394.59375,173.46875 L 396.125,173.46875 L 396.125,171.90625 L 396.0625,106.15625 L 396.0625,106.09375 L 396.0625,106.03125 C 395.77233,102.36672 397.04721,99.452784 399.1875,97.3125 C 401.32774,95.172217 404.35375,93.852976 407.40625,93.625 C 410.45874,93.397025 413.48395,94.251815 415.78125,96.34375 C 418.07854,98.435686 419.7669,101.81768 419.875,107.0625 L 419.78125,171.90625 L 419.78125,173.46875 L 421.34375,173.46875 L 463.25,173.46875 L 464.78125,173.46875 L 464.8125,171.9375 C 464.81251,171.9375 464.91655,152.86778 465.03125,133.75 C 465.08854,124.19111 465.1444,114.6163 465.1875,107.40625 C 465.20901,103.80122 465.2374,100.78308 465.25,98.65625 C 465.26251,96.529426 465.2499,95.407819 465.25,95.21875 L 465.25,95.15625 L 465.25,95.09375 C 464.37071,85.714224 459.89485,78.893035 453.40625,74.4375 C 446.91764,69.981966 438.5094,67.780188 429.5,67.09375 C 420.84991,66.436034 412.09335,68.740781 405.40625,71.125 C 402.06264,72.317111 399.2358,73.528746 397.21875,74.4375 C 396.72554,74.659708 396.45316,74.789859 396.0625,74.96875 L 395.84375,31.6875 L 395.8125,29.65625 z M 75.375,32.375 L 73.4375,32.875 L 30.625,43.84375 L 29.46875,44.15625 L 29.46875,45.34375 L 29.46875,68.375 L 14.1875,68.375 L 12.65625,68.375 L 12.65625,69.9375 L 12.65625,90.8125 L 12.65625,92.375 L 14.1875,92.375 L 29.46875,92.375 L 29.46875,148.90625 L 29.46875,149.0625 C 29.44664,149.29394 29.09781,153.38632 31.28125,158.40625 C 33.52705,163.56953 38.5051,169.63732 48.90625,173.40625 C 60.705178,177.69568 73.83211,177.4487 84.71875,175.5 C 90.162068,174.52565 95.05313,173.13124 98.96875,171.625 C 102.88437,170.11876 105.77094,168.57693 107.46875,166.96875 L 107.96875,166.5 L 107.96875,165.84375 C 107.96875,165.84375 107.99044,159.24092 108,152.65625 C 108.00478,149.36392 108.00359,146.08096 108,143.625 C 107.99821,142.39702 107.97402,141.36872 107.96875,140.65625 C 107.96611,140.30002 107.97265,140.04111 107.96875,139.84375 C 107.9668,139.74507 107.97221,139.66801 107.96875,139.59375 C 107.96702,139.55662 107.97795,139.5208 107.96875,139.4375 C 107.96415,139.39585 107.97819,139.39318 107.90625,139.15625 C 107.87028,139.03778 107.12529,138.2189 107.125,138.21875 C 107.12473,138.21861 105.42874,138.77988 105.15625,138.875 L 105.0625,138.84375 C 105.04409,138.87699 105.01854,138.90436 105,138.9375 C 101.92167,144.44211 97.08886,148.59947 92,150.6875 C 86.894928,152.78218 81.60752,152.80176 77.40625,150.3125 C 77.394368,150.30546 77.38686,150.28833 77.375,150.28125 C 75.940958,149.22509 75.53406,148.40759 75.375,147.71875 C 75.216348,147.03168 75.352,146.33717 75.3125,145.34375 C 75.312498,145.34375 75.3125,145.25032 75.3125,145.25 C 75.312498,145.0684 75.3125,95.262729 75.3125,92.375 L 99.375,92.375 L 100.9375,92.375 L 100.9375,90.84375 L 100.9375,69.9375 L 100.9375,68.375 L 99.375,68.375 L 75.375,68.34375 L 75.375,34.375 L 75.375,32.375 z M 171.9375,66.375 C 158.84651,66.323924 143.72428,70.805124 131.875,79.84375 C 120.02573,88.882377 111.48068,102.63704 112.03125,120.78125 C 112.5416,139.81378 122.21355,153.97283 135.53125,163.1875 C 148.84896,172.40217 165.78693,176.78878 181.34375,176.65625 C 198.85321,176.50969 209.7979,173.83957 216.40625,171.125 C 219.71044,169.76772 221.92582,168.39892 223.34375,167.34375 C 224.76169,166.28858 225.4375,165.4375 225.4375,165.4375 L 225.78125,165 L 225.78125,164.46875 L 225.78125,138.03125 L 225.78125,133.125 L 222.96875,137.15625 C 217.31774,145.19093 205.24353,153.09717 192.90625,152.9375 C 177.3195,152.73341 168.73914,145.67523 163.8125,138.625 C 159.90496,133.03313 158.69862,128.45728 158.25,126.40625 L 224.78125,126.375 L 226.375,126.375 L 226.3125,124.78125 C 225.34521,97.341185 216.0306,82.507881 204.6875,74.78125 C 193.34441,67.05462 180.23393,66.409731 171.9375,66.375 z M 534.90625,66.375 C 521.85234,66.323916 506.7236,70.805625 494.875,79.84375 C 483.02631,88.881876 474.4888,102.6375 475,120.78125 C 475.54951,139.81212 485.1822,153.97283 498.5,163.1875 C 511.81771,172.40217 528.7806,176.78877 544.375,176.65625 C 561.84648,176.50968 572.78935,173.83901 579.40625,171.125 C 582.71464,169.768 584.92055,168.39802 586.34375,167.34375 C 587.76694,166.28948 588.46875,165.4375 588.46875,165.4375 L 588.8125,165.78125 L 588.8125,164.46875 L 588.8125,138.03125 L 588.8125,133.125 L 586,137.15625 C 580.35238,145.18584 568.18095,153.09717 555.84375,152.9375 C 540.29634,152.73344 531.71795,145.67654 526.78125,138.625 C 522.86574,133.03209 521.67255,128.45772 521.21875,126.40625 L 587.8125,126.375 L 589.40625,126.375 L 589.34375,124.75 C 588.33774,97.31002 578.9772,82.507336 567.625,74.78125 C 556.27268,67.055165 543.20265,66.409731 534.90625,66.375 z M 296.78125,66.53125 C 294.9542,66.528647 293.0739,66.584237 291.125,66.6875 C 276.91287,67.437149 262.68792,72.264927 251.96875,81.28125 C 241.24959,90.297574 234.11643,103.5816 234.3125,120.8125 C 234.50925,139.14676 244.04345,153.19116 256.6875,162.5 C 269.33154,171.80884 285.04867,176.53125 298.15625,176.53125 C 302.94622,176.53124 322.82267,175.41867 336.375,165.8125 L 336.40625,165.78125 L 336.4375,165.78125 C 337.13088,165.24382 336.96616,165.05944 337,164.9375 C 337.03383,164.81556 337.02165,164.75205 337.03125,164.6875 C 337.05044,164.55839 337.08496,164.436 337.09375,164.3125 C 337.11133,164.0655 337.11422,163.75521 337.125,163.375 C 337.14654,162.61459 337.14905,161.59175 337.15625,160.34375 C 337.17064,157.84776 337.17538,154.53554 337.15625,151.25 C 337.11798,144.67893 337.03125,138.15625 337.03125,138.15625 L 334.03125,137.625 C 334.03124,137.625 332.8111,141.07993 328.71875,144.65625 C 324.62639,148.23257 317.73318,151.84876 306.21875,151.71875 C 298.69021,151.6341 292.56227,148.25635 288.09375,143.0625 C 283.62522,137.86865 280.89285,130.84697 280.34375,123.71875 C 279.79464,116.59053 281.42628,109.39385 285.59375,103.75 C 289.76121,98.10615 296.45032,93.926609 306.375,92.84375 C 326.87967,90.61082 335.6875,109.3125 335.6875,109.3125 L 338.625,108.65625 L 338.625,79.125 L 338.625,78.375 L 338.0625,77.90625 C 338.06249,77.906251 334.03063,74.615644 326.21875,71.625 C 319.38335,69.008188 309.57061,66.549474 296.78125,66.53125 z M 675.28125,67.1875 C 667.38885,67.389556 658.40315,69.929903 648.6875,76.09375 C 648.57388,75.385677 648.54405,75.215399 648.40625,74.34375 C 648.28314,73.565562 648.1622,72.869037 648.0625,72.21875 L 649.1875,72.21875 L 647.59375,69.8125 C 647.59344,69.812053 647.2502,69.4377 647.25,69.4375 C 647.24978,69.437349 646.63675,69.300749 646.28125,69.21875 L 646.28125,69.125 L 603.6875,69.125 L 602.15625,69.125 L 602.15625,70.65625 L 602.15625,172.3125 L 602.15625,173.84375 L 603.6875,173.84375 L 646.28125,173.875 L 647.84375,173.875 L 647.84375,172.3125 L 647.90625,108.40625 L 647.90625,108.3125 L 647.90625,108.25 C 647.63634,105.44636 648.3583,101.81273 650.25,99.03125 C 652.14158,96.249775 655.04785,94.218748 659.65625,94.21875 C 664.67284,94.218751 667.57425,96.104895 669.40625,98.75 C 671.23824,101.39511 671.9188,104.96678 671.8125,108.15625 L 671.8125,108.1875 L 671.8125,108.21875 C 671.81248,108.38794 671.8105,109.16779 671.8125,110.8125 C 671.81438,112.45721 671.8095,114.79207 671.8125,117.625 C 671.81838,123.29086 671.83895,130.89957 671.84375,138.625 C 671.85334,154.07586 671.8482,170.14874 671.8125,172.15625 L 671.78125,173.75 L 673.34375,173.75 L 715.875,173.75 L 717.40625,173.75 L 717.40625,172.1875 C 717.40624,172.1875 717.4279,155.9482 717.4375,139.6875 C 717.44218,131.55715 717.441,123.422 717.4375,117.3125 C 717.43568,114.25775 717.4427,111.69652 717.4375,109.90625 C 717.43478,109.01112 717.4411,108.33075 717.4375,107.84375 C 717.43558,107.60025 717.4397,107.38556 717.4375,107.25 C 717.43628,107.18222 717.4392,107.14421 717.4375,107.09375 C 717.43658,107.06852 717.40895,107.04012 717.40625,107 C 717.40494,106.97994 717.41275,106.95957 717.40625,106.90625 C 716.98474,103.41585 718.1926,100.58463 720.3125,98.4375 C 722.43228,96.290367 725.5182,94.898842 728.625,94.59375 C 731.73168,94.288659 734.8012,95.05195 737.125,97.0625 C 739.44868,99.073051 741.12885,102.38823 741.21875,107.625 L 741.15625,172.5 L 741.15625,174.03125 L 742.71875,174.03125 L 784.90625,174 L 786.46875,174 L 786.46875,172.4375 C 786.46874,172.4375 786.49305,153.75552 786.53125,135 C 786.56944,116.24448 786.625,97.624667 786.625,97.21875 C 786.62498,88.095262 781.577,80.690771 774.4375,75.65625 C 767.29788,70.62173 758.03375,67.792844 749.03125,67.4375 C 738.33884,67.018566 728.4007,71.225572 721.0625,75.4375 C 717.39328,77.543465 714.3869,79.67288 712.25,81.25 C 711.27338,81.970745 710.53935,82.536542 709.96875,82.96875 C 709.86534,82.852379 709.8088,82.789172 709.6875,82.65625 C 708.90638,81.800709 707.7484,80.61956 706.25,79.28125 C 703.25308,76.604631 698.8747,73.298866 693.25,70.8125 C 689.03138,68.947727 684.10915,67.567825 678.59375,67.25 C 677.51185,67.187656 676.40874,67.158635 675.28125,67.1875 z M 177.90625,88.65625 C 187.15468,88.656251 192.09918,92.974672 195,97.375 C 196.96233,100.35169 197.70077,102.79561 198.09375,104.40625 L 158.5,104.40625 C 159.00584,102.75787 159.88669,100.3499 161.875,97.40625 C 164.8729,92.967948 169.7085,88.656252 177.90625,88.65625 z M 540.9375,88.65625 C 550.14568,88.656251 555.07665,92.97432 557.96875,97.375 C 560.62725,101.42024 561.33291,105.30891 561.4375,105.9375 L 555.5625,105.9375 L 521.4375,104.5 C 521.93318,102.877 522.8244,100.42387 524.875,97.40625 C 527.89188,92.966404 532.7397,88.656252 540.9375,88.65625 z " transform="translate(598.79426,-4.4544997)" style="fill:#231f20;fill-rule:nonzero;stroke:none" id="path17721"/>
      <path d="M 33.9375,192.9375 C 29.973478,192.9417 26.84664,192.9616 24.71875,192.96875 C 23.65481,192.97233 22.83626,192.96432 22.28125,192.96875 C 22.00374,192.97096 21.80607,192.99743 21.65625,193 C 21.58134,193.00128 21.52299,192.99809 21.46875,193 C 21.44163,193.00096 21.41985,192.99683 21.375,193 C 21.33015,193.00317 20.0628,193.90559 20.0625,193.90625 L 20.03125,193.96875 L 20,194 C 16.71516,203.00519 16.9752,214.02477 22.40625,222.90625 C 27.8373,231.78773 38.49177,238.3125 55.25,238.3125 C 55.306788,238.3125 115.58145,238.33993 175.8125,238.34375 C 205.92803,238.34566 236.04088,238.34375 258.65625,238.34375 C 269.96392,238.34375 279.41468,238.34459 286.03125,238.34375 C 289.33953,238.34333 291.9351,238.34442 293.71875,238.34375 C 294.61057,238.34341 295.28301,238.34416 295.75,238.34375 C 295.98349,238.34355 296.1901,238.34397 296.3125,238.34375 C 296.37369,238.34364 296.40368,238.34387 296.4375,238.34375 C 296.47131,238.34363 296.35602,238.35201 296.5625,238.34375 C 328.5275,237.26176 348.91443,239.96729 363.96875,246.6875 C 379.02306,253.40771 388.91667,264.15212 399.90625,279.625 L 401.125,278.75 C 401.91604,278.73793 402.71875,278.7189 402.71875,278.71875 L 402.71875,278.6875 C 402.71874,278.68736 402.71885,278.66046 402.71875,278.65625 C 402.71844,278.64784 402.71935,278.64239 402.71875,278.625 C 402.71754,278.59023 402.72145,278.53578 402.71875,278.46875 C 402.71644,278.41246 402.72235,278.29697 402.71875,278.21875 L 402.71875,278.1875 C 402.71394,278.08582 402.6949,278.01018 402.6875,277.875 C 402.65901,277.36259 402.5853,276.64369 402.5,275.6875 C 402.32931,273.77513 402.04125,271.02157 401.46875,267.6875 C 400.32372,261.01936 398.12871,251.96756 393.96875,242.4375 C 385.64882,223.37739 369.25509,202.33388 337.65625,194.9375 L 337.65625,194.90625 C 327.99561,192.70148 321.22073,193 311.15625,193 L 311.0625,193 L 310.3125,193 C 310.15691,193.00086 309.82382,192.99919 309.625,193 C 309.12793,193.00201 308.66324,192.99835 307.90625,193 C 305.78665,193.00463 302.67817,193.02921 298.71875,193.03125 C 290.7999,193.03534 279.48301,193.03496 265.90625,193.03125 C 238.75272,193.02384 202.55216,192.98691 166.34375,192.96875 C 130.13535,192.95059 93.914,192.93917 66.75,192.9375 C 53.167998,192.93667 41.86553,192.9291 33.9375,192.9375 z M 743.5,192.9375 C 716.44708,192.93917 680.3823,192.95059 644.3125,192.96875 C 608.24258,192.98691 572.14575,193.02384 545.09375,193.03125 C 531.56774,193.03496 520.3269,193.03534 512.4375,193.03125 C 508.49268,193.02921 505.39295,193.00463 503.28125,193 C 502.53674,192.99837 502.0547,193.00198 501.5625,193 L 500.125,193 L 500.03125,193 C 489.96674,193 483.19185,192.70148 473.53125,194.90625 L 473.53125,194.9375 C 441.97024,202.33412 425.5699,223.37739 417.25,242.4375 C 413.09001,251.96756 410.92155,261.01835 409.78125,267.6875 C 409.21104,271.02208 408.88415,273.77283 408.71875,275.6875 C 408.63604,276.64483 408.5873,277.38912 408.5625,277.90625 C 408.55001,278.16481 408.5658,278.35629 408.5625,278.5 C 408.56081,278.57185 408.5623,278.63268 408.5625,278.6875 C 408.56251,278.71491 408.5601,278.7297 408.5625,278.78125 C 408.56361,278.80702 408.549,278.83831 408.5625,278.9375 C 408.57591,279.03669 411.21845,279.8128 411.21875,279.8125 L 411.28125,279.71875 L 411.375,279.625 C 422.36501,264.15143 432.24635,253.40736 447.28125,246.6875 C 462.31614,239.96764 482.69115,237.26176 514.65625,238.34375 C 514.86184,238.35198 514.7163,238.34363 514.75,238.34375 C 514.78358,238.34387 514.84535,238.34364 514.90625,238.34375 C 515.02814,238.34397 515.205,238.34355 515.4375,238.34375 C 515.90228,238.34416 516.58115,238.34341 517.46875,238.34375 C 519.24404,238.34442 521.8323,238.34333 525.125,238.34375 C 531.71028,238.34459 541.08925,238.34375 552.34375,238.34375 C 574.85274,238.34375 604.8355,238.34566 634.8125,238.34375 C 694.76628,238.33993 754.7644,238.3125 754.875,238.3125 C 771.59578,238.3125 782.2041,231.78753 787.625,222.90625 C 793.04578,214.02497 793.31615,203.0052 790.03125,194 L 789.71875,194.125 C 789.31064,193.67831 788.7216,193.00251 788.6875,193 C 788.64038,192.99655 788.62085,193.00098 788.59375,193 C 788.53954,192.99805 788.48045,193.00129 788.40625,193 C 788.25794,192.99742 788.0253,192.97096 787.75,192.96875 C 787.19918,192.96432 786.40165,192.97233 785.34375,192.96875 C 783.22784,192.9616 780.1332,192.9417 776.1875,192.9375 C 768.29598,192.9291 757.0264,192.93667 743.5,192.9375 z " transform="translate(598.79426,-4.4544997)" style="fill:#ed1c24;fill-rule:nonzero;stroke:none;stroke-width:0.40599999;stroke-linecap:butt;stroke-linejoin:miter;stroke-miterlimit:3.86400008;stroke-dasharray:none" id="path17745"/>
    </g>
  </g>
</svg>