<?xml version="1.0" standalone="no"?>
<!DOCTYPE svg PUBLIC "-//W3C//DTD SVG 20010904//EN"
 "http://www.w3.org/TR/2001/REC-SVG-20010904/DTD/svg10.dtd">
<svg version="1.0" xmlns="http://www.w3.org/2000/svg"
 width="200.000000pt" height="200.000000pt" viewBox="0 0 200.000000 200.000000"
 preserveAspectRatio="xMidYMid meet">

<g transform="translate(0.000000,200.000000) scale(0.100000,-0.100000)"
fill="#000000" stroke="none">
<path d="M0 1000 l0 -1000 1000 0 1000 0 0 1000 0 1000 -1000 0 -1000 0 0
-1000z m186 53 l18 -78 19 78 c15 59 23 77 37 77 13 0 21 -18 36 -77 l18 -78
14 65 c18 89 19 90 42 90 12 0 19 -3 17 -7 -3 -5 -14 -51 -26 -104 -18 -77
-26 -98 -41 -102 -20 -5 -29 13 -46 101 -9 44 -20 48 -28 10 -17 -84 -27 -108
-46 -108 -21 0 -22 2 -49 123 -18 84 -18 87 -1 87 15 0 22 -16 36 -77z m303 7
c14 -39 28 -73 32 -76 4 -2 20 29 36 71 25 68 30 75 55 75 l27 0 -2 -107 c-2
-89 -5 -108 -17 -108 -12 0 -16 17 -20 75 l-5 75 -25 -68 c-37 -102 -51 -103
-88 -9 l-31 77 -1 -72 c0 -66 -2 -73 -20 -73 -19 0 -20 7 -20 105 l0 105 28 0
c25 0 29 -6 51 -70z m403 53 c19 -17 24 -43 8 -43 -5 0 -10 7 -10 15 0 16 -30
35 -55 35 -9 0 -27 -11 -40 -25 -49 -48 -21 -165 40 -165 41 0 55 11 55 41 0
24 -4 29 -25 29 -14 0 -25 5 -25 10 0 6 15 10 34 10 38 0 45 -12 38 -63 -8
-50 -82 -63 -129 -23 -25 22 -28 30 -28 91 0 58 3 69 24 86 29 23 88 25 113 2z
m198 -3 c25 -25 25 -50 0 -83 l-20 -25 21 -37 c12 -20 19 -39 15 -42 -3 -4 -7
-4 -9 -2 -2 2 -15 23 -30 47 -23 36 -33 43 -55 40 -24 -3 -27 -8 -30 -45 -6
-85 -21 -41 -21 62 l0 105 54 0 c42 0 60 -5 75 -20z m80 -58 c0 -91 15 -122
60 -122 45 0 60 31 60 122 0 45 4 78 10 78 6 0 10 -35 10 -85 0 -78 -2 -88
-25 -110 -29 -30 -74 -32 -106 -6 -21 17 -24 29 -27 110 -3 62 0 91 7 91 7 0
11 -28 11 -78z m312 61 c22 -20 24 -76 3 -93 -8 -7 -35 -15 -60 -18 -45 -5
-45 -5 -45 -43 0 -22 -4 -39 -10 -39 -6 0 -10 42 -10 105 l0 105 52 0 c34 0
58 -6 70 -17z m188 -3 c11 -11 20 -30 20 -43 0 -41 -23 -59 -78 -65 l-52 -5 0
-38 c0 -22 -4 -39 -10 -39 -6 0 -10 42 -10 105 l0 105 55 0 c42 0 60 -5 75
-20z m185 10 c-3 -5 -28 -10 -56 -10 l-49 0 0 -40 0 -40 53 -2 52 -2 -52 -3
-53 -4 0 -45 0 -44 63 -1 c51 0 58 -2 37 -10 -14 -6 -45 -9 -70 -7 l-45 3 -3
108 -3 107 66 0 c42 0 64 -4 60 -10z"/>
<path d="M980 1081 c0 -44 10 -61 34 -61 42 0 66 13 72 36 9 36 -12 54 -62 54
-42 0 -44 -1 -44 -29z"/>
<path d="M1380 1064 l0 -45 41 3 c48 3 65 23 55 61 -6 24 -11 27 -51 27 l-45
0 0 -46z"/>
<path d="M1560 1065 l0 -45 43 0 c47 0 67 13 67 45 0 32 -20 45 -67 45 l-43 0
0 -45z"/>
</g>
</svg>
